<svg width="163" height="46" viewBox="0 0 163 46" fill="none" xmlns="http://www.w3.org/2000/svg">
<g clip-path="url(#clip0)">
<path d="M33.6171 14.5897L27.4288 20.6462L29.8248 22.9913L36.0131 16.9347L33.6171 14.5897Z" fill="white"/>
<path d="M21.0968 26.8563L14.9086 32.9128L17.3046 35.2579L23.4928 29.2013L21.0968 26.8563Z" fill="white"/>
<path d="M29.6789 10.7559L23.4907 16.8125L25.8867 19.1575L32.0749 13.101L29.6789 10.7559Z" fill="white"/>
<path d="M17.1758 23.0061L10.9875 29.0626L13.3835 31.4076L19.5718 25.3511L17.1758 23.0061Z" fill="white"/>
<path d="M13.37 14.5894L10.974 16.9344L17.1622 22.991L19.5582 20.646L13.37 14.5894Z" fill="white"/>
<path d="M17.3042 10.7519L14.9082 13.0969L21.0964 19.1535L23.4924 16.8085L17.3042 10.7519Z" fill="white"/>
<path d="M29.821 22.9891L27.425 25.3341L33.6133 31.3907L36.0093 29.0456L29.821 22.9891Z" fill="white"/>
<path d="M25.9041 26.8433L23.5081 29.1884L29.6963 35.2449L32.0923 32.8999L25.9041 26.8433Z" fill="white"/>
<path d="M32.0809 37.6017L29.6919 35.2635L23.5 41.3237L17.3081 35.2635L14.9191 37.6017L23.5 46.0001L32.0809 37.6017Z" fill="#EFEFEF"/>
<path d="M10.9699 16.9399L8.58091 14.6017L0 23L8.58091 31.3984L10.9699 29.0602L4.77801 23L10.9699 16.9399Z" fill="#EFEFEF"/>
<path d="M38.4192 14.6017L36.0302 16.9399L42.2221 23L36.0302 29.0602L38.4192 31.3984L47.0001 23L38.4192 14.6017Z" fill="#EFEFEF"/>
<path d="M29.6919 10.7365L32.0809 8.39834L23.5 0L14.9191 8.39834L17.3081 10.7365L23.5 4.67635L29.6919 10.7365Z" fill="#EFEFEF"/>
</g>
<path d="M59.5234 33V15.9375H65.5C67.5703 15.9375 69.1406 16.3359 70.2109 17.1328C71.2812 17.9219 71.8164 19.082 71.8164 20.6133C71.8164 21.4492 71.6016 22.1875 71.1719 22.8281C70.7422 23.4609 70.1445 23.9258 69.3789 24.2227C70.2539 24.4414 70.9414 24.8828 71.4414 25.5469C71.9492 26.2109 72.2031 27.0234 72.2031 27.9844C72.2031 29.625 71.6797 30.8672 70.6328 31.7109C69.5859 32.5547 68.0938 32.9844 66.1562 33H59.5234ZM63.0391 25.5703V30.1758H66.0508C66.8789 30.1758 67.5234 29.9805 67.9844 29.5898C68.4531 29.1914 68.6875 28.6445 68.6875 27.9492C68.6875 26.3867 67.8789 25.5938 66.2617 25.5703H63.0391ZM63.0391 23.0859H65.6406C67.4141 23.0547 68.3008 22.3477 68.3008 20.9648C68.3008 20.1914 68.0742 19.6367 67.6211 19.3008C67.1758 18.957 66.4688 18.7852 65.5 18.7852H63.0391V23.0859ZM87.5172 25.6055H80.7672V30.1758H88.6891V33H77.2516V15.9375H88.6656V18.7852H80.7672V22.8516H87.5172V25.6055ZM102.784 29.4844H96.6203L95.4484 33H91.7102L98.0617 15.9375H101.32L107.706 33H103.968L102.784 29.4844ZM97.5695 26.6367H101.835L99.6906 20.25L97.5695 26.6367ZM124.403 15.9375V27.1758C124.403 29.043 123.817 30.5195 122.645 31.6055C121.481 32.6914 119.888 33.2344 117.864 33.2344C115.872 33.2344 114.29 32.707 113.118 31.6523C111.946 30.5977 111.348 29.1484 111.325 27.3047V15.9375H114.841V27.1992C114.841 28.3164 115.106 29.1328 115.638 29.6484C116.177 30.1562 116.919 30.4102 117.864 30.4102C119.841 30.4102 120.845 29.3711 120.876 27.293V15.9375H124.403ZM142.53 18.7852H137.303V33H133.787V18.7852H128.631V15.9375H142.53V18.7852ZM153.016 23.625L156.566 15.9375H160.41L154.809 26.8125V33H151.234V26.8125L145.633 15.9375H149.488L153.016 23.625Z" fill="white"/>
<defs>
<clipPath id="clip0">
<rect width="47" height="46" fill="white"/>
</clipPath>
</defs>
</svg>
