<svg width="105" height="31" viewBox="0 0 105 31" fill="none" xmlns="http://www.w3.org/2000/svg">
<g clip-path="url(#clip0)">
<path d="M22.6549 9.8321L18.4846 13.9137L20.0993 15.494L24.2696 11.4124L22.6549 9.8321Z" fill="#F13C6E"/>
<path d="M14.2173 18.0988L10.047 22.1804L11.6617 23.7608L15.832 19.6792L14.2173 18.0988Z" fill="#F13C6E"/>
<path d="M20.001 7.2486L15.8307 11.3302L17.4454 12.9105L21.6157 8.82894L20.001 7.2486Z" fill="#F13C6E"/>
<path d="M11.575 15.5041L7.40466 19.5857L9.01936 21.166L13.1897 17.0844L11.575 15.5041Z" fill="#F13C6E"/>
<path d="M9.0102 9.83202L7.39551 11.4124L11.5658 15.4939L13.1805 13.9136L9.0102 9.83202Z" fill="#F13C6E"/>
<path d="M11.6616 7.24583L10.0469 8.82617L14.2172 12.9078L15.8319 11.3274L11.6616 7.24583Z" fill="#F13C6E"/>
<path d="M20.0967 15.4927L18.4821 17.073L22.6524 21.1546L24.2671 19.5743L20.0967 15.4927Z" fill="#F13C6E"/>
<path d="M17.4571 18.0901L15.8424 19.6704L20.0127 23.752L21.6274 22.1717L17.4571 18.0901Z" fill="#F13C6E"/>
<path d="M21.6198 25.3403L20.0098 23.7645L15.837 27.8486L11.6642 23.7645L10.0542 25.3403L15.837 31L21.6198 25.3403Z" fill="#EFEFEF"/>
<path d="M7.39277 11.4159L5.78279 9.84021L0 15.5L5.78279 21.1597L7.39277 19.584L3.21996 15.5L7.39277 11.4159Z" fill="#EFEFEF"/>
<path d="M25.8911 9.84021L24.2811 11.4159L28.4539 15.5L24.2811 19.584L25.8911 21.1597L31.6739 15.5L25.8911 9.84021Z" fill="#EFEFEF"/>
<path d="M20.0098 7.23548L21.6198 5.65975L15.837 0L10.0542 5.65975L11.6642 7.23548L15.837 3.15145L20.0098 7.23548Z" fill="#EFEFEF"/>
</g>
<path d="M36.0156 21V9.625H40C41.3802 9.625 42.4271 9.89062 43.1406 10.4219C43.8542 10.9479 44.2109 11.7214 44.2109 12.7422C44.2109 13.2995 44.0677 13.7917 43.7812 14.2188C43.4948 14.6406 43.0964 14.9505 42.5859 15.1484C43.1693 15.2943 43.6276 15.5885 43.9609 16.0312C44.2995 16.474 44.4688 17.0156 44.4688 17.6562C44.4688 18.75 44.1198 19.5781 43.4219 20.1406C42.724 20.7031 41.7292 20.9896 40.4375 21H36.0156ZM38.3594 16.0469V19.1172H40.3672C40.9193 19.1172 41.349 18.987 41.6562 18.7266C41.9688 18.4609 42.125 18.0964 42.125 17.6328C42.125 16.5911 41.5859 16.0625 40.5078 16.0469H38.3594ZM38.3594 14.3906H40.0938C41.276 14.3698 41.8672 13.8984 41.8672 12.9766C41.8672 12.4609 41.7161 12.0911 41.4141 11.8672C41.1172 11.638 40.6458 11.5234 40 11.5234H38.3594V14.3906ZM54.6781 16.0703H50.1781V19.1172H55.4594V21H47.8344V9.625H55.4438V11.5234H50.1781V14.2344H54.6781V16.0703ZM64.8563 18.6562H60.7469L59.9656 21H57.4734L61.7078 9.625H63.8797L68.1375 21H65.6453L64.8563 18.6562ZM61.3797 16.7578H64.2234L62.7938 12.5L61.3797 16.7578ZM79.2687 9.625V17.1172C79.2687 18.362 78.8781 19.3464 78.0969 20.0703C77.3208 20.7943 76.2583 21.1562 74.9094 21.1562C73.5812 21.1562 72.5266 20.8047 71.7453 20.1016C70.9641 19.3984 70.5656 18.4323 70.55 17.2031V9.625H72.8937V17.1328C72.8937 17.8776 73.0708 18.4219 73.425 18.7656C73.7844 19.1042 74.2792 19.2734 74.9094 19.2734C76.2271 19.2734 76.8964 18.5807 76.9172 17.1953V9.625H79.2687ZM91.3531 11.5234H87.8688V21H85.525V11.5234H82.0875V9.625H91.3531V11.5234ZM98.3438 14.75L100.711 9.625H103.273L99.5391 16.875V21H97.1562V16.875L93.4219 9.625H95.9922L98.3438 14.75Z" fill="#F13C6E"/>
<defs>
<clipPath id="clip0">
<rect width="31.6739" height="31" fill="white"/>
</clipPath>
</defs>
</svg>
